<?xml version="1.0" encoding="UTF-8" standalone="no"?>
<!-- Created with Inkscape (http://www.inkscape.org/) -->

<svg
   version="1.1"
   id="svg1"
   width="864.19489"
   height="864.19489"
   viewBox="0 0 864.19489 864.19488"
   sodipodi:docname="icon.svg"
   inkscape:version="1.4 (e7c3feb100, 2024-10-09)"
   xmlns:inkscape="http://www.inkscape.org/namespaces/inkscape"
   xmlns:sodipodi="http://sodipodi.sourceforge.net/DTD/sodipodi-0.dtd"
   xmlns="http://www.w3.org/2000/svg"
   xmlns:svg="http://www.w3.org/2000/svg">
  <sodipodi:namedview
     id="namedview1"
     pagecolor="#ffffff"
     bordercolor="#000000"
     borderopacity="0.25"
     inkscape:showpageshadow="2"
     inkscape:pageopacity="0.0"
     inkscape:pagecheckerboard="0"
     inkscape:deskcolor="#d1d1d1"
     inkscape:zoom="0.64661392"
     inkscape:cx="289.19885"
     inkscape:cy="467.82166"
     inkscape:window-width="1440"
     inkscape:window-height="894"
     inkscape:window-x="0"
     inkscape:window-y="0"
     inkscape:window-maximized="1"
     inkscape:current-layer="svg1" />
  <defs
     id="defs1" />
  <g
     inkscape:groupmode="layer"
     id="layer2"
     inkscape:label="strokes"
     transform="translate(-1156.8392,2605.5732)">
    <path
       id="path121"
       style="fill:#cf1b1b;fill-opacity:1"
       inkscape:label="Red"
       d="M 1489.4935 -2216.5537 C 1483.7917 -2217.849 1416.1079 -2149.2631 1381.7923 -2112.583 C 1372.4211 -2102.5662 1349.2254 -2080.0223 1344.1947 -2085.0498 C 1333.3832 -2095.8546 1372.2904 -2119.7919 1362.9212 -2128.6982 C 1354.159 -2137.0274 1332.3318 -2112.4338 1322.1673 -2102.7041 C 1295.0534 -2076.7501 1264.1229 -2055.0005 1235.6947 -2030.708 C 1221.7682 -2018.8075 1204.5491 -2026.0773 1220.8021 -2040.458 C 1232.7866 -2051.0619 1260.7963 -2069.4285 1251.6107 -2079.5009 C 1246.5117 -2085.0921 1225.4953 -2067.4544 1213.2357 -2057.3642 C 1202.9236 -2048.8769 1185.7109 -2048.1404 1196.1009 -2059.3818 C 1205.3873 -2069.4291 1231.8875 -2088.4193 1216.7689 -2091.6064 C 1211.3454 -2092.7497 1183.8597 -2060.984 1177.0736 -2066.0732 C 1169.145 -2072.0192 1183.114 -2086.0876 1188.3607 -2093.4228 C 1200.2088 -2109.9869 1229.7251 -2135.0129 1225.4427 -2141.8349 C 1219.4655 -2151.3565 1200.073 -2129.8927 1191.5716 -2122.0888 C 1182.5214 -2113.7811 1167.1494 -2097.0766 1156.3236 -2086.9521 L 1156.3236 -1907.7255 C 1174.651 -1887.1118 1212.8084 -1844.6273 1221.5853 -1833.3779 C 1240.3659 -1834.5824 1309.9205 -1900.4474 1429.0384 -2025.4462 C 1440.9685 -2038.4595 1463.7197 -2051.664 1459.5833 -2069.3818 C 1456.292 -2083.4796 1436.4244 -2055.2824 1427.5404 -2049.0107 C 1413.7345 -2034.8925 1398.7797 -2022.1514 1383.9154 -2009.124 C 1371.632 -2025.4682 1400.2185 -2032.5215 1408.2279 -2044.749 C 1412.4455 -2049.5335 1426.204 -2067.978 1432.5247 -2076.3877 C 1437.8334 -2083.4508 1430.4664 -2087.0383 1426.3138 -2083.5029 C 1415.2466 -2074.0806 1403.1185 -2061.8116 1391.9017 -2051.913 C 1382.8062 -2043.8865 1373.5727 -2045.7988 1381.3509 -2054.4052 C 1401.2775 -2076.4536 1414.5717 -2087.4016 1434.0736 -2105.3798 C 1442.9136 -2113.5291 1446.2534 -2131.3037 1432.3958 -2120.4462 C 1409.231 -2102.2965 1369.9157 -2059.6178 1365.14 -2064.2373 C 1358.986 -2070.1902 1376.8124 -2083.9454 1384.5892 -2092.2177 C 1417.3083 -2127.0213 1450.1192 -2161.7218 1482.847 -2196.5205 C 1485.5735 -2199.4196 1498.4005 -2214.5302 1489.4935 -2216.5537 z M 1198.681 -2181.5537 C 1182.198 -2177.1014 1203.7945 -2157.5842 1205.4232 -2175.665 C 1205.2615 -2179.0806 1202.0266 -2181.7097 1198.681 -2181.5537 z M 1498.2142 -2177.3447 C 1477.3972 -2171.8386 1504.2483 -2150.8878 1506.138 -2170.9755 C 1505.282 -2174.5032 1501.8733 -2177.408 1498.2142 -2177.3447 z M 1242.5658 -2169.5263 C 1224.3322 -2167.7366 1239.4643 -2141.103 1248.5814 -2158.1591 C 1251.2947 -2162.7149 1248.0243 -2169.4656 1242.5658 -2169.5263 z M 1182.1986 -2161.4345 C 1163.6908 -2159.4429 1180.9371 -2132.8452 1188.9134 -2150.6318 C 1191.2115 -2155.2774 1187.2255 -2161.287 1182.1986 -2161.4345 z M 1384.515 -2150.122 C 1366.5551 -2149.3731 1376.7172 -2124.7364 1389.1849 -2138.1552 C 1393.0249 -2142.7064 1391.1753 -2150.1265 1384.515 -2150.122 z M 1460.4818 -2149.2685 C 1440.2257 -2146.9037 1456.0482 -2119.3334 1466.4642 -2138.3623 C 1469.7573 -2142.9074 1465.5893 -2149.1712 1460.4818 -2149.2685 z M 1247.1185 -2129.3877 C 1228.4646 -2126.3511 1247.7218 -2101.653 1253.5814 -2120.9404 C 1255.4896 -2125.1731 1251.4354 -2129.7172 1247.1185 -2129.3877 z M 1230.6849 -2110.3408 C 1229.5993 -2110.4101 1228.4819 -2110.0618 1227.4466 -2109.1162 C 1224.8016 -2106.7004 1228.0252 -2099.3404 1233.556 -2100.5771 C 1239.4803 -2101.9018 1235.3891 -2110.0405 1230.6849 -2110.3408 z M 1276.2201 -2107.499 C 1262.2117 -2107.9195 1256.8497 -2079.7861 1273.931 -2090.9502 C 1278.1716 -2094.2005 1284.3305 -2105.1718 1276.2201 -2107.499 z " />
    <path
       id="path203"
       style="fill:#1b1b25;fill-opacity:1"
       inkscape:label="Black"
       d="M 1990.6595 -2304.8544 C 1982.2685 -2304.3406 1838.3676 -2129.0562 1827.474 -2134.1025 C 1818.0836 -2138.4525 1849.2 -2170.8196 1856.5853 -2179.9677 C 1878.4776 -2207.0854 1900.8315 -2230.6401 1877.2826 -2222.8955 C 1868.3426 -2219.9553 1813.219 -2154.8747 1800.9076 -2158.3955 C 1774.6103 -2165.916 1741.7898 -2188.1527 1734.1732 -2179.8916 C 1713.4908 -2157.459 1674.7787 -2115.6531 1645.6029 -2084.6552 C 1630.1281 -2066.2817 1611.03 -2066.2007 1633.8958 -2088.5615 C 1651.0103 -2105.2981 1693.6579 -2147.327 1683.3646 -2153.4736 C 1668.6275 -2162.2738 1636.0434 -2105.7222 1618.4525 -2121.8994 C 1613.3811 -2126.5632 1711.1772 -2221.8782 1703.0013 -2228.9814 C 1690.4121 -2239.9189 1653.2419 -2187.7662 1629.929 -2165.4423 C 1592.3457 -2129.4535 1538.7486 -2067.1084 1522.4896 -2052.1904 C 1510.5285 -2041.216 1506.5903 -2031.3998 1495.349 -2038.0205 C 1491.7385 -2040.1469 1554.0828 -2097.3936 1539.724 -2106.2353 C 1531.4832 -2111.3097 1478.2367 -2037.0942 1470.9447 -2042.8466 C 1464.5301 -2047.907 1478.5984 -2060.8603 1490.0736 -2075.0009 C 1502.8595 -2090.7566 1516.8126 -2106.5057 1510.515 -2110.8252 C 1504.2012 -2115.1558 1498.1752 -2108.7545 1491.0638 -2100.997 C 1467.7415 -2075.5555 1302.3976 -1902.4652 1292.4662 -1910.5791 C 1287.8685 -1914.3354 1340.0942 -1963.4535 1330.64 -1970.6279 C 1323.2517 -1976.2345 1261.3265 -1899.6378 1259.1654 -1919.5966 C 1258.1999 -1928.5134 1346.9203 -1996.787 1322.0814 -1998.8662 C 1311.8699 -1999.721 1253.5724 -1940.2728 1222.7923 -1909.4912 C 1210.9228 -1897.6212 1190.2454 -1891.2151 1200.138 -1902.0595 C 1235.4672 -1940.7879 1314.9925 -2011.4139 1308.0208 -2019.9834 C 1299.794 -2030.0954 1270.7026 -1994.8921 1259.3001 -1983.872 C 1249.0507 -1973.9664 1212.104 -1932.4034 1204.3626 -1942.1845 C 1197.6798 -1950.6282 1270.5411 -2010.023 1259.8431 -2017.6669 C 1250.0618 -2024.6558 1193.1006 -1953.0481 1156.8392 -1923.5009 L 1156.8392 -1741.3779 L 2021.0345 -1741.3779 L 2021.0345 -2252.6552 C 2006.6567 -2243.9709 1978.4805 -2207.7102 1974.8236 -2219.8896 C 1971.0312 -2232.5197 2008.6556 -2260.4382 2021.0345 -2278.5927 L 2021.0345 -2292.8369 C 2010.0606 -2292.2062 1959.2267 -2224.7212 1955.5052 -2242.913 C 1953.6226 -2252.1157 2013.302 -2306.2408 1990.6595 -2304.8544 z M 1925.638 -2271.2353 C 1920.7707 -2271.2353 1914.2781 -2264.4001 1916.1966 -2261.2959 C 1918.6498 -2257.3266 1931.7454 -2271.2353 1925.638 -2271.2353 z M 1721.0579 -2256.2998 C 1719.2031 -2256.3098 1717.2246 -2255.6314 1715.8822 -2254.1494 C 1711.6061 -2249.4287 1702.2611 -2239.5523 1707.7689 -2238.4755 C 1712.168 -2237.6155 1717.6848 -2241.5712 1723.4486 -2247.5595 C 1728.626 -2252.9386 1725.1386 -2256.2789 1721.0579 -2256.2998 z M 1737.931 -2216.2607 C 1736.9129 -2216.2127 1735.932 -2215.9021 1735.1849 -2215.665 C 1730.5494 -2214.1937 1727.4738 -2206.2941 1730.3978 -2203.3701 C 1735.086 -2198.6819 1744.5725 -2206.5287 1742.431 -2212.7705 C 1741.4285 -2215.6922 1739.6277 -2216.3401 1737.931 -2216.2607 z M 1626.6771 -2203.0341 C 1623.4498 -2202.9531 1620.1797 -2197.9534 1622.3119 -2195.8212 C 1623.4978 -2194.6352 1627.3663 -2195.1151 1628.599 -2196.6005 C 1630.2864 -2198.6336 1629.4976 -2202.5682 1627.3197 -2202.9834 C 1627.1065 -2203.0244 1626.8922 -2203.0391 1626.6771 -2203.0341 z M 1704.2376 -2178.5459 C 1700.1591 -2178.2394 1689.6541 -2167.3449 1694.8353 -2164.1689 C 1701.019 -2160.3785 1710.5803 -2173.8863 1705.2728 -2178.2802 C 1705.0129 -2178.4954 1704.6595 -2178.5777 1704.2376 -2178.5459 z M 1570.7259 -2148.0107 C 1567.3737 -2147.9767 1564.0442 -2146.1237 1562.4447 -2143.1416 C 1557.1642 -2133.2973 1567.6233 -2126.1502 1573.7747 -2130.956 C 1584.0686 -2138.9981 1577.3925 -2146.3468 1573.5091 -2147.5966 C 1572.6041 -2147.8879 1571.6645 -2148.0201 1570.7259 -2148.0107 z M 1975.3822 -2146.9619 C 1986.2233 -2147.1788 1993.8316 -2144.0952 1991.7787 -2123.9248 C 1987.7792 -2084.6294 1991.2891 -2045.5431 1991.849 -2006.163 C 1992.2591 -1977.3123 1992.1326 -1948.6587 1992.097 -1919.8193 C 1992.0389 -1872.7427 1992.4511 -1825.7102 1992.0814 -1778.6357 C 1977.4557 -1771.1388 1950.2982 -1768.2195 1953.765 -1795.458 C 1957.6855 -1826.262 1954.58 -1856.5235 1953.4447 -1887.5224 C 1952.1643 -1922.481 1953.2446 -1957.0304 1953.5892 -1991.9619 C 1953.8491 -2018.3068 1955.4821 -2044.5577 1953.4486 -2071.0771 C 1951.5071 -2096.3959 1956.962 -2121.1925 1953.765 -2145.9853 C 1961.2084 -2145.5141 1968.8775 -2146.8318 1975.3822 -2146.9619 z M 1478.3275 -2124.1416 C 1477.1583 -2124.1636 1475.9572 -2123.4766 1474.4779 -2122.0869 C 1471.5688 -2119.3539 1471.5207 -2115.9383 1474.3529 -2113.2998 C 1477.2161 -2110.6322 1480.6635 -2110.709 1482.6068 -2113.4834 C 1484.7509 -2116.5446 1484.5565 -2119.2138 1481.9896 -2121.9462 C 1480.6343 -2123.3888 1479.4966 -2124.1198 1478.3275 -2124.1416 z M 1904.8587 -2102.7861 C 1917.7374 -2102.5194 1925.964 -2098.0134 1923.2454 -2077.4931 C 1919.6771 -2050.558 1923.9419 -2023.8844 1923.7044 -1996.9502 C 1923.4124 -1963.83 1924.3841 -1931.5909 1924.5619 -1898.5615 C 1924.7212 -1868.9389 1923.0741 -1839.8272 1923.5384 -1810.3779 C 1923.8788 -1788.7894 1927.6283 -1768.0438 1899.3665 -1774.7529 C 1870.808 -1775.1023 1884.6699 -1821.4792 1883.3314 -1844.4384 C 1881.2499 -1880.1412 1884.3339 -1916.1241 1885.7044 -1951.7724 C 1887.0279 -1986.1947 1884.5628 -2020.9965 1885.7572 -2055.415 C 1886.2904 -2070.7803 1882.6938 -2086.4689 1885.0033 -2101.6279 C 1892.1889 -2102.1526 1899.0048 -2102.9073 1904.8587 -2102.7861 z M 1455.1732 -2096.1142 C 1450.7238 -2095.8697 1442.6412 -2088.9019 1426.8138 -2071.3642 C 1419.3628 -2063.108 1411.9955 -2055.0064 1394.9779 -2037.7509 C 1383.9824 -2026.6017 1380.5204 -2020.2373 1379.1654 -2018.2216 C 1375.9399 -2013.4232 1376.2299 -2004.0268 1383.5579 -2006.8466 C 1385.2737 -2007.5068 1402.3895 -2022.1456 1421.6927 -2041.5595 C 1461.8507 -2081.9476 1465.9449 -2087.9678 1457.724 -2095.2568 C 1457.0334 -2095.8691 1456.1999 -2096.1706 1455.1732 -2096.1142 z M 1832.4212 -2059.0263 C 1844.5532 -2059.1891 1852.7492 -2055.345 1851.4271 -2031.9345 C 1849.5769 -1999.1722 1850.6264 -1964.6437 1850.7142 -1933.0341 C 1850.8156 -1896.5292 1852.6543 -1859.5716 1852.6068 -1823.4209 C 1852.5812 -1803.9332 1856.7741 -1785.8195 1849.4525 -1777.6123 C 1844.5555 -1772.123 1830.2231 -1773.1627 1814.4798 -1774.6884 C 1813.298 -1796.4184 1814.2471 -1835.7112 1814.224 -1864.4462 C 1814.2003 -1893.8719 1816.1552 -1920.5926 1813.64 -1952.5087 C 1811.1888 -1983.6131 1812.2019 -2019.1735 1813.9622 -2057.7822 C 1820.5792 -2058.0504 1826.9067 -2058.9524 1832.4212 -2059.0263 z M 1188.6165 -2047.9111 C 1186.1529 -2047.9461 1182.3616 -2045.1203 1175.1341 -2038.2568 C 1170.3953 -2033.7566 1164.1433 -2028.1026 1161.3841 -2025.5341 L 1156.8392 -2021.3037 L 1156.8392 -2003.0087 C 1169.7274 -2015.4508 1191.1485 -2039.358 1192.2494 -2044.1162 C 1192.4125 -2044.8211 1191.5598 -2046.1222 1190.7162 -2046.9658 C 1190.1124 -2047.5696 1189.4377 -2047.8994 1188.6165 -2047.9111 z M 1203.9251 -2025.1064 C 1202.3969 -2024.8418 1194.2513 -2015.3744 1187.9349 -2007.0537 C 1184.5292 -2002.5672 1176.2183 -1993.6765 1169.8275 -1987.4482 C 1169.8275 -1987.4482 1162.0032 -1980.0312 1156.8392 -1974.0283 L 1156.8392 -1945.0537 C 1163.8564 -1951.2944 1198.1071 -1987.5041 1207.2826 -1997.499 C 1218.8496 -2010.099 1225.9186 -2014.2672 1224.1302 -2016.0556 C 1223.3683 -2016.8175 1219.9041 -2016.0416 1218.3587 -2015.6318 C 1206.9194 -2012.6014 1206.5853 -2020.9809 1204.14 -2025.0341 C 1204.099 -2025.1011 1204.027 -2025.1224 1203.9251 -2025.1044 L 1203.9251 -2025.1064 z M 1760.8529 -2019.3681 C 1775.5651 -2019.5628 1786.5005 -2017.619 1782.554 -1993.1064 C 1777.8954 -1964.1696 1784.6834 -1934.0997 1783.3236 -1904.958 C 1782.1805 -1880.4607 1784.4093 -1855.4311 1783.4056 -1830.5127 C 1782.4962 -1807.9357 1795.3757 -1766.234 1759.3314 -1774.5517 C 1729.7303 -1777.0391 1747.6179 -1824.8742 1745.2572 -1847.122 C 1741.6984 -1880.6595 1746.581 -1914.6907 1745.6654 -1948.2763 C 1745.0255 -1971.7467 1744.9419 -1995.6465 1745.2923 -2019.2177 C 1750.6249 -2019.0012 1755.9488 -2019.3032 1760.8529 -2019.3681 z M 1692.2611 -1981.7412 C 1708.4397 -1981.4908 1718.0756 -1974.1257 1714.1244 -1950.2314 C 1708.8449 -1918.3054 1714.7567 -1885.7201 1712.6263 -1853.6259 C 1710.8974 -1827.5794 1715.1388 -1800.3587 1710.2806 -1775.5888 C 1690.5474 -1772.3567 1667.6803 -1768.6891 1673.4896 -1798.7138 C 1679.7433 -1831.0355 1675.2396 -1864.9369 1675.1283 -1897.8837 C 1675.0357 -1925.2816 1675.4126 -1952.4996 1674.1615 -1979.9677 C 1680.7477 -1981.1162 1686.8682 -1981.8246 1692.2611 -1981.7412 z M 1621.5267 -1944.2275 C 1641.0471 -1944.3705 1647.5725 -1929.9721 1643.9271 -1905.3564 C 1638.7651 -1870.4999 1641.049 -1833.8999 1644.5794 -1798.6689 C 1647.6302 -1768.2245 1627.6993 -1773.7978 1605.1283 -1773.9853 C 1606.5509 -1804.0721 1601.5898 -1834.2886 1604.5052 -1864.4111 C 1606.9292 -1889.4555 1597.7287 -1921.7217 1609.3275 -1942.624 C 1613.8515 -1943.6753 1617.9118 -1944.201 1621.5267 -1944.2275 z M 1535.9349 -1910.1787 C 1558.5862 -1909.2613 1578.3078 -1915.6059 1574.5247 -1882.9697 C 1570.3702 -1847.1287 1574.5657 -1810.8854 1574.4505 -1775.0459 C 1545.7835 -1770.3014 1533.2477 -1774.9394 1534.5599 -1807.4716 C 1532.0444 -1836.8058 1537.0347 -1876.8231 1535.9349 -1910.1787 z M 1483.9388 -1879.7548 C 1494.886 -1879.9795 1502.1039 -1877.6858 1501.8587 -1856.2568 C 1501.5581 -1829.9827 1504.6113 -1793.9782 1498.9173 -1774.8505 C 1475.2812 -1770.4236 1468.2191 -1775.7589 1467.8451 -1803.8408 C 1467.4966 -1830.0026 1469.0656 -1854.7256 1467.0501 -1879.4482 C 1473.2159 -1879.03 1478.9628 -1879.6527 1483.9388 -1879.7548 z M 1417.8529 -1851.1318 C 1427.8314 -1851.1117 1433.3119 -1844.3447 1432.6283 -1819.0439 C 1432.0818 -1798.8196 1439.9261 -1773.1642 1414.1537 -1773.4736 C 1390.9191 -1773.7525 1396.1583 -1794.9866 1396.4466 -1814.6025 C 1396.5479 -1821.4966 1396.9289 -1838.2177 1398.7083 -1847.3037 C 1406.165 -1849.3017 1412.626 -1851.1423 1417.8529 -1851.1318 z M 1343.5853 -1828.9209 C 1356.5732 -1828.9397 1364.7711 -1824.313 1364.7904 -1800.872 C 1364.8053 -1782.6986 1361.1067 -1773.8317 1346.5013 -1773.4834 C 1331.2757 -1773.1203 1327.5178 -1780.4755 1326.3412 -1794.7099 C 1325.4031 -1806.0578 1326.3432 -1814.4346 1326.3412 -1827.6142 C 1332.6874 -1828.1956 1338.5031 -1828.9135 1343.5853 -1828.9209 z M 1280.3548 -1803.4209 C 1292.6687 -1803.4225 1295.3892 -1798.5749 1294.3216 -1775.5693 C 1259.9339 -1770.4184 1255.5161 -1773.1979 1257.0716 -1801.663 C 1267.1784 -1802.4174 1274.7576 -1803.4201 1280.3548 -1803.4209 z M 1212.1966 -1783.4697 C 1221.4422 -1783.5024 1227.9023 -1781.6228 1221.2259 -1774.5361 C 1211.4095 -1775.897 1184.7082 -1768.144 1188.3314 -1781.1806 C 1193.713 -1781.9238 1204.0388 -1783.4408 1212.1966 -1783.4697 z " />
  </g>
  <g
     inkscape:groupmode="layer"
     id="layer3"
     inkscape:label="stonks"
     transform="translate(3.3681,10.654)"
     style="display:inline">
    <path
       id="rect20-1-9"
       style="display:inline;fill:#cf1b1b;fill-opacity:1;stroke:#1b1b25;stroke-width:10;stroke-linejoin:round;stroke-miterlimit:10;stroke-dasharray:none;stroke-opacity:1"
       d="m 828.45577,164.91312 c -36.78035,6.24639 -77.99809,17.47974 -120.30961,44.46733 14.09174,13.56156 38.13505,28.74451 38.13505,28.74451 -38.90677,61.12233 -89.1141,133.10328 -139.83981,184.59277 -10.52353,10.68198 9.00054,35.47558 27.00396,11.70405 12.16968,-16.06873 68.14915,-81.64181 140.65562,-178.65394 0,0 23.51826,15.27976 39.67302,26.72516 10.24967,-33.30674 11.72202,-71.1618 14.68177,-117.57988 z m -240.4549,268.23159 c -43.77441,4.20297 -23.42424,73.01931 13.8447,47.93658 21.39573,-14.39975 12.17997,-44.10317 -13.8447,-47.93658 z M 559.663,470.26 c -23.60221,17.45251 -62.01032,50.57763 -72.03604,69.35057 25.07469,31.60336 43.79059,-4.35792 78.74446,-35.33289 18.95084,-16.79361 4.94859,-21.7108 -6.70842,-34.01768 z m -91.452,67.018 c -37.71771,-0.12682 -28.92019,63.11974 6.83894,51.31425 29.77666,-7.02422 21.11656,-48.41683 -6.83894,-51.31425 z m -28.72414,28.31477 c -3.3363,-17.61188 -89.62636,1.33057 -109.13621,9.154 -6.2664,38.86188 35.62964,23.6465 57.49213,19.87027 24.73152,-4.27178 56.45163,-3.64585 51.64408,-29.02427 z m -138.04621,-0.1238 c -38.96361,0.24944 -28.51788,67.20952 10.58526,51.24614 27.55501,-11.02312 14.375,-51.40594 -10.58526,-51.24614 z M 266.463,598.26 c -42.88618,31.86276 -84.87858,64.6116 -126.6305,97.90913 -15.80648,13.74061 0.0961,38.25312 21.30338,20.12045 27.97488,-23.91908 68.89459,-51.62899 97.95196,-75.98669 C 277.9129,625.67044 293.4527,618.14612 266.463,598.26 Z M 111.06381,702.94245 c -40.419456,1.1382 -28.779002,65.75321 10.82789,50.14637 26.68132,-10.5136 14.41405,-50.85717 -10.82789,-50.14637 z"
       sodipodi:nodetypes="cccssccccscccsccccscssscsccsccsss" />
  </g>
  <g
     inkscape:groupmode="layer"
     id="layer1"
     inkscape:label="flag"
     transform="translate(3.3681332,10.653984)">
    <g
       id="g2"
       inkscape:label="Red flag">
      <path
         id="path110"
         style="fill:#cf1b1b;fill-opacity:1"
         d="M 664.39359 -10.653984 C 656.39918 -6.0517715 650.16059 -1.1988123 651.61234 1.7327348 C 654.13493 6.8267029 672.97042 -1.7591486 684.5596 -10.653984 L 664.39359 -10.653984 z M 586.69827 -7.3004684 C 577.5035 -7.3085882 566.23105 -6.575995 557.88577 -6.0172652 C 453.44894 0.97495467 386.67113 134.1411 268.46976 135.66438 L 367.18851 366.51008 C 467.18345 359.16358 524.12694 266.46712 614.88577 242.90852 C 636.38807 237.32712 660.29867 232.39991 660.88577 241.25031 C 661.14187 245.11001 644.30147 263.08417 620.79593 283.22492 C 615.97792 287.35323 612.31332 293.21464 611.66702 296.45344 C 610.60102 301.79544 611.32456 304.44737 617.84476 302.28547 C 622.54276 300.72777 630.05999 294.50485 635.83499 289.89875 C 645.93099 281.84635 669.15126 259.31802 672.28616 254.53352 C 673.12156 253.25852 693.85149 231.40474 686.05179 214.26594 C 677.43189 195.32494 645.78914 209.18513 639.98734 207.63703 C 632.04814 205.51863 680.30544 176.86549 673.92484 169.98469 C 668.09334 163.69589 632.45543 191.86489 626.89163 182.2132 C 623.32333 176.0233 656.14794 157.29099 663.49124 153.23469 C 679.17004 144.57399 694.6422 129.002 674.0596 133.7425 C 656.6826 137.7448 618.39824 160.15863 617.33694 150.10383 C 616.79814 144.99953 651.58379 123.8968 648.64749 118.1175 C 643.78879 108.5545 604.46402 137.6758 599.07132 129.7132 C 587.07012 111.993 662.64818 90.74638 658.20218 79.160469 C 653.77898 67.633879 590.32194 102.29529 589.11234 89.010079 C 589.17994 72.735978 636.86624 67.019304 636.86624 59.025703 C 636.86624 51.409704 607.05062 58.147957 595.66312 61.652657 C 593.34002 62.367657 565.21725 70.849759 564.07718 62.847969 C 565.34727 51.337869 585.4695 39.858697 603.5928 31.771797 C 618.5506 25.097297 629.67425 18.020466 631.62015 13.939766 C 635.67235 5.4421665 629.23159 5.5800415 609.08109 14.424141 C 601.21209 17.877841 559.11879 29.70181 555.81351 25.71711 C 553.47899 22.90261 551.27885 13.148844 574.1553 5.3323441 C 589.9358 -0.05955488 603.09493 -0.87750588 603.04593 -4.1364059 C 603.00998 -6.5424561 595.89304 -7.2923485 586.69827 -7.3004684 z M 674.69046 49.441719 C 666.7899 49.475434 657.6104 52.717933 656.55569 55.603828 C 654.57035 61.036105 684.33783 68.367409 686.15335 59.293282 C 687.63679 51.878971 681.66154 49.411971 674.69046 49.441719 z M 704.31351 118.09992 C 699.40574 118.1572 693.94396 123.58208 694.34476 128.53742 C 694.98603 136.46596 713.21903 134.0777 711.16312 125.055 C 710.0028 119.96277 707.25817 118.06556 704.31351 118.09992 z " />
      <path
         id="path1-1-3"
         style="fill:#1b1b25;stroke-width:10.7;stroke-miterlimit:10"
         d="m 235.79147,111.8463 c -7.56918,3.24141 -11.07774,12.00493 -7.83675,19.57428 3.2417,7.56987 12.00646,11.07826 19.57608,7.83598 7.56989,-3.2417 11.07827,-12.00645 7.83598,-19.57608 -3.24239,-7.56875 -12.00639,-11.07617 -19.57531,-7.83418 z m 2.72723,35.50879 c 41.26127,96.34124 81.20919,195.20448 126.20112,287.81507 20.34773,41.71605 28.25571,70.09832 46.87939,113.58287 l 27.66662,9.04598 C 418.15381,508.49994 397.04179,455.86973 375.92977,409.91521 335.3875,315.84535 298.38381,228.85265 259.61097,138.32164 Z"
         sodipodi:nodetypes="cccccccccccc" />
    </g>
    <path
       id="path208"
       style="fill:#1b1b25;fill-opacity:1"
       inkscape:label="black flag"
       inkscape:transform-center-x="5.0220831"
       inkscape:transform-center-y="-10.044166"
       d="M 415.13577 24.27375 C 412.88057 24.29555 410.24228 25.368383 408.29398 26.168282 C 403.74998 28.033881 399.50724 33.148038 402.83694 37.703438 C 405.18364 39.654838 408.36723 38.54465 410.98343 37.77375 C 415.44213 36.45985 420.87832 32.984797 419.47562 27.584297 C 418.81862 25.054599 417.12557 24.25465 415.13577 24.27375 z M 473.78421 33.558907 C 468.48111 34.155007 462.26871 40.860496 467.25491 45.521797 C 470.09901 48.180597 473.98476 46.02458 476.75296 44.135078 C 482.04326 40.523897 479.56772 32.907937 473.78421 33.558907 z M 384.65921 39.207344 C 376.76781 39.738044 366.69333 42.609785 361.95413 43.638985 C 347.85983 46.699585 306.79489 59.793184 283.49319 72.863594 C 198.33739 120.62927 178.4331 170.89353 45.051789 193.35383 C 49.371089 205.83213 138.6078 413.24314 144.2471 424.01594 C 238.31503 425.26846 321.19047 333.36586 377.17484 299.78938 C 397.21525 287.7702 423.00865 283.2277 434.88968 281.73664 C 482.61924 275.7466 435.69834 306.67761 446.08109 310.67609 C 449.78994 312.1044 472.7545 296.85634 473.26859 285.53938 C 473.87258 272.24324 471.86526 258.21102 441.17679 262.21125 C 431.18421 263.51378 429.8533 255.60645 433.1846 249.53156 C 435.9585 244.47313 442.1446 238.73741 448.38577 232.69172 C 462.28346 219.22931 476.15376 213.86916 489.12601 215.31672 C 500.41791 216.57677 487.55953 197.43235 467.32132 205.54914 C 427.86118 221.37513 421.91345 236.4253 415.26273 225.23859 C 411.23699 218.46717 454.16536 199.01801 448.35648 184.82063 C 443.64593 173.30767 409.16697 208.9414 404.40726 203.15266 C 400.59963 198.52184 409.55841 191.064 422.57718 180.055 C 439.42218 165.81029 459.28644 144.07192 445.74124 144.12922 C 435.94454 144.17062 406.30994 184.68731 390.92874 170.71711 C 383.54134 164.00729 415.05623 148.29919 428.70023 139.20539 C 438.34153 132.77939 463.06436 112.27348 451.06546 110.76008 C 437.69396 109.07348 383.99727 151.65902 377.16507 142.62922 C 370.39037 133.67552 424.69631 121.14981 412.02835 110.34406 C 404.07679 103.56139 365.12071 128.29678 364.40921 119.54328 C 363.73251 111.21798 404.09985 95.105085 415.87015 88.576485 C 431.56775 79.869495 425.70968 71.003903 411.20218 77.775704 C 398.50678 83.701593 359.19316 100.39842 354.66116 93.857735 C 350.19006 87.405035 402.038 75.894664 399.9639 66.619454 C 397.6349 56.204653 349.16462 82.065427 345.9639 75.078438 C 340.1371 62.358858 378.91146 57.671025 393.12991 46.820625 C 400.47298 41.216964 392.55061 38.676744 384.65921 39.207344 z M 445.03616 53.096016 C 442.13586 53.048416 439.01285 54.288628 436.56155 55.853828 C 431.34055 59.187529 428.98414 66.576934 433.83304 71.394844 C 438.05144 75.586244 443.1725 73.811903 447.0264 70.525704 C 451.1237 67.031893 454.81967 61.015454 450.97757 55.994453 C 449.41277 53.949453 447.29196 53.133016 445.03616 53.096016 z M 459.66312 128.61359 C 455.33682 128.60209 449.69608 133.75202 452.66898 138.47102 C 454.15628 140.83192 456.73139 140.34536 458.98929 139.46906 C 464.13499 137.47196 467.19658 129.22057 460.07718 128.63117 C 459.94068 128.61987 459.80272 128.61389 459.66312 128.61359 z M 16.362336 168.10188 C 14.397201 167.94818 12.370721 168.25921 10.389679 169.1507 C -14.183459 180.20893 22.111045 214.71343 29.807648 186.95734 C 32.244682 178.16873 24.877919 168.76789 16.362336 168.10188 z M 29.608429 200.67219 C 23.111551 201.19741 17.743529 206.75547 21.209992 214.12531 C 37.881301 249.5692 147.10015 524.59351 199.01077 609.84602 C 210.48653 628.69261 216.54053 637.81749 220.8096 634.76008 C 224.57622 632.06251 228.5118 624.59151 219.29202 605.76789 C 189.53149 545.00714 110.88044 384.48079 43.190461 210.09602 C 40.39759 202.90095 34.661557 200.26368 29.608429 200.67219 z " />
  </g>
</svg>
